<svg width="49" height="48" viewBox="0 0 49 48" fill="none" xmlns="http://www.w3.org/2000/svg">
<g clip-path="url(#clip0_998:38)">
<g clip-path="url(#clip1_998:38)">
<path d="M29.6416 13.624H41.6395V17.0693H29.6416V13.624Z" fill="white"/>
<path d="M29.6416 22.2373H41.6395V25.6826H29.6416V22.2373Z" fill="white"/>
<path d="M29.6416 30.8506H41.6395V34.2959H29.6416V30.8506Z" fill="white"/>
<path d="M45.0674 5.01123H3.93187C3.02299 5.01214 2.15161 5.37542 1.50893 6.02135C0.866264 6.66727 0.504814 7.54307 0.503906 8.45655V39.4644C0.504814 40.3779 0.866264 41.2537 1.50893 41.8996C2.15161 42.5455 3.02299 42.9088 3.93187 42.9097H45.0674C45.9761 42.9084 46.8472 42.5449 47.4898 41.8991C48.1324 41.2533 48.494 40.3777 48.4953 39.4644V8.45655C48.4944 7.54307 48.133 6.66727 47.4903 6.02135C46.8477 5.37542 45.9763 5.01214 45.0674 5.01123ZM3.93187 8.45655H22.7856V39.4644H3.93187V8.45655ZM26.2136 39.4644V8.45655H45.0674L45.0708 39.4644H26.2136Z" fill="white"/>
</g>
</g>
<defs>
<clipPath id="clip0_998:38">
<rect width="48" height="48" fill="white" transform="translate(0.5)"/>
</clipPath>
<clipPath id="clip1_998:38">
<rect width="48" height="37.92" fill="white" transform="translate(0.5 5)"/>
</clipPath>
</defs>
</svg>
